#!OML:ASF E:\Mandelcareful walks\Project 1\Capture day 1\Session 1\Subject1.ASF
:FULLY-SPECIFIED
:DEGREES
797
root -25.5662 14.9868 -3.75757 -534.198 54.5275 -555.488
lowerback 24.19 -3.32657 6.18376
upperback 7.11872 -1.82758 1.56803
thorax -5.75255 -0.53494 -1.33582
lowerneck -25.7147 -12.7787 -13.0849
upperneck 16.1369 -18.429 23.1451
head 13.5267 -6.37806 7.29152
rclavicle -3.18055e-015 9.54166e-015
rhumerus -23.9519 28.7487 -89.0392
rradius 43.9421
rwrist -70.9767
rhand 4.12599 -38.8726
rfingers 7.12502
rthumb 29.536 -66.5429
lclavicle -3.18055e-015 9.54166e-015
lhumerus -8.36729 -77.5028 100.299
lradius 59.9337
lwrist 2.27588
lhand -27.8223 -12.9143
lfingers 7.12502
lthumb -1.2143 17.062
rfemur -53.7421 -4.61241 -1.98816
rtibia 58.7953
rfoot -18.8473 -8.81917
rtoes -7.31722
lfemur -49.3797 16.0063 -20.3399
ltibia 54.1568
lfoot -17.2162 6.83904
ltoes -24.6027
798
root -25.5859 14.9706 -3.89929 -534.35 55.058 -555.488
lowerback 24.3454 -3.32208 5.93621
upperback 7.20427 -1.85557 1.62254
thorax -5.7298 -0.541841 -1.12569
lowerneck -26.266 -12.7593 -13.2132
upperneck 16.4839 -18.3047 22.8347
head 13.7066 -6.31765 7.22565
rclavicle 3.18055e-014 1.59028e-015
rhumerus -23.8566 29.5031 -88.8842
rradius 43.8835
rwrist -71.1605
rhand 3.60638 -38.4081
rfingers 7.12502
rthumb 29.0398 -66.165
lclavicle 3.18055e-014 1.59028e-015
lhumerus -7.6584 -77.2633 99.793
lradius 59.7826
lwrist 2.23757
lhand -27.6667 -12.8649
lfingers 7.12502
lthumb -1.06404 17.1122
rfemur -53.4116 -4.4571 -2.4197
rtibia 58.558
rfoot -18.879 -8.64592
rtoes -8.39133
lfemur -49.5968 15.2603 -19.829
ltibia 53.8926
lfoot -16.0889 7.15945
ltoes -24.5855
799
root -25.6105 14.955 -4.05507 -534.608 55.7538 -555.635
lowerback 24.3597 -3.19649 5.64659
upperback 7.31539 -1.76512 1.57969
thorax -5.60302 -0.491935 -1.03606
lowerneck -26.7397 -12.7878 -13.4417
upperneck 16.6735 -18.2486 22.7808
head 13.8779 -6.27662 7.26117
rclavicle -1.59028e-015 -4.45278e-014
rhumerus -23.7116 29.9856 -88.736
rradius 43.7896
rwrist -71.2599
rhand 2.91226 -37.7577
rfingers 7.12502
rthumb 28.3767 -65.6269
lclavicle -1.59028e-015 -4.45278e-014
lhumerus -6.68362 -77.2534 98.9921
lradius 59.6802
lwrist 2.27972
lhand -28.0124 -13.1869
lfingers 7.12502
lthumb -1.39789 16.7883
rfemur -53.1453 -4.19934 -3.00635
rtibia 58.2554
rfoot -18.7759 -8.4661
rtoes -9.67158
lfemur -49.6809 14.5855 -19.5302
ltibia 54.1085
lfoot -15.9069 6.94043
ltoes -24.3545
800
root -25.634 14.9403 -4.2193 -534.996 56.5765 -555.77
lowerback 24.5509 -2.96219 5.40919
upperback 7.29249 -1.52716 1.44952
thorax -5.7078 -0.383718 -1.1076
lowerneck -26.7573 -12.7969 -13.5991
upperneck 16.7777 -18.222 22.7708
head 13.9329 -6.27227 7.29758
rclavicle -4.92986e-014 4.77083e-014
rhumerus -23.9027 29.8192 -88.8199
rradius 43.5995
rwrist -71.1694
rhand 2.67891 -37.7979
rfingers 7.12502
rthumb 28.1537 -65.7041
lclavicle -4.92986e-014 4.77083e-014
lhumerus -7.22949 -77.3991 99.7115
lradius 59.4166
lwrist 2.20227
lhand -28.5924 -14.0818
lfingers 7.12502
lthumb -1.95802 15.8889
rfemur -52.7378 -3.67537 -3.68459
rtibia 57.8918
rfoot -18.5982 -8.17477
rtoes -9.23681
lfemur -49.3578 14.2966 -19.4617
ltibia 54.6339
lfoot -15.5648 7.87639
ltoes -20.5829
801
root -25.6554 14.9232 -4.39347 -535.371 57.3996 -555.988
lowerback 24.7029 -2.7522 5.31742
upperback 7.08897 -1.3194 1.19638
thorax -5.99915 -0.306844 -1.38654
lowerneck -26.5694 -12.7604 -13.6038
upperneck 16.9321 -18.1871 22.6601
head 13.9338 -6.27547 7.27298
rclavicle -2.54444e-014 -1.59028e-015
rhumerus -24.4586 29.4907 -89.2642
rradius 43.3886
rwrist -71.2326
rhand 2.52154 -37.7891
rfingers 7.12502
rthumb 28.0033 -65.7199
lclavicle -2.54444e-014 -1.59028e-015
lhumerus -9.11601 -77.5611 101.722
lradius 58.9971
lwrist 2.20583
lhand -28.7173 -14.3849
lfingers 7.12502
lthumb -2.07865 15.5848
rfemur -52.3526 -3.23995 -4.4111
rtibia 57.5345
rfoot -18.6362 -7.77687
rtoes -9.0309
lfemur -48.9495 14.2953 -19.7821
ltibia 55.3298
lfoot -17.3542 6.69598
ltoes -19.6287
802
root -25.6791 14.9066 -4.57661 -535.947 58.0533 -556.517
lowerback 24.595 -2.62367 5.00666
upperback 6.99574 -1.26793 1.08834
thorax -6.04102 -0.293478 -1.34288
lowerneck -26.7448 -12.7149 -13.6491
upperneck 17.1906 -18.0378 22.267
head 13.9783 -6.24034 7.16366
rclavicle 7.63333e-014 0
rhumerus -24.6883 29.5698 -89.333
rradius 43.2062
rwrist -71.5997
rhand 2.26125 -37.9631
rfingers 7.12502
rthumb 27.7544 -65.9342
lclavicle 7.63333e-014 0
lhumerus -9.45242 -77.4532 102.462
lradius 58.4292
lwrist 2.16322
lhand -28.5839 -14.257
lfingers 7.12502
lthumb -1.94988 15.7138
rfemur -51.9148 -3.0137 -5.32036
rtibia 57.1743
rfoot -18.7607 -7.52334
rtoes -10.8277
lfemur -48.6066 14.2561 -20.5282
ltibia 56.0568
lfoot -18.0501 8.54313
ltoes -19.9933
803
root -25.7012 14.8986 -4.75577 -536.432 58.5711 -556.826
lowerback 24.5504 -2.53148 4.84556
upperback 6.87082 -1.21844 1.0052
thorax -6.15183 -0.282663 -1.35525
lowerneck -26.7629 -12.6417 -13.5405
upperneck 17.4864 -17.9122 21.8293
head 13.9913 -6.21732 7.00744
rclavicle 4.77083e-015 2.22639e-014
rhumerus -25.0616 29.2352 -89.486
rradius 43.1118
rwrist -71.5444
rhand 2.00516 -38.7321
rfingers 7.12502
rthumb 27.5095 -66.7425
lclavicle 4.77083e-015 2.22639e-014
lhumerus -10.3403 -77.4365 103.588
lradius 57.8988
lwrist 1.86573
lhand -28.3039 -14.0526
lfingers 7.12502
lthumb -1.67945 15.9205
rfemur -51.3074 -2.5495 -6.14757
rtibia 56.7538
rfoot -18.8858 -7.71905
rtoes -13.454
lfemur -48.2799 14.2278 -21.1987
ltibia 56.7431
lfoot -19.1053 9.21723
ltoes -21.379
804
root -25.7167 14.9005 -4.92535 -536.275 59.09 -556.46
lowerback 24.355 -2.38493 4.87799
upperback 6.83406 -1.04223 1.07777
thorax -6.0829 -0.203621 -1.34807
lowerneck -26.9324 -12.638 -13.4155
upperneck 17.6815 -17.8991 21.5421
head 14.0412 -6.21698 6.87515
rclavicle 1.7175e-013 -3.81667e-014
rhumerus -25.2068 28.6257 -89.4716
rradius 42.9609
rwrist -71.1456
rhand 1.48944 -39.1017
rfingers 7.12502
rthumb 27.0162 -67.1895
lclavicle 1.7175e-013 -3.81667e-014
lhumerus -10.5019 -77.6233 104.005
lradius 57.3531
lwrist 1.54371
lhand -27.8461 -13.9111
lfingers 7.12502
lthumb -1.23723 16.0651
rfemur -50.7589 -1.78641 -6.5744
rtibia 56.2663
rfoot -18.9917 -8.33882
rtoes -15.6545
lfemur -48.0761 14.2684 -21.3426
ltibia 57.4015
lfoot -19.9035 9.69546
ltoes -19.8125
805
root -25.7286 14.9065 -5.09154 -536.023 59.5442 -556.05
lowerback 24.1319 -2.32415 4.82989
upperback 6.7808 -0.983065 1.30075
thorax -6.02129 -0.180517 -1.09681
lowerneck -27.0626 -12.5891 -13.5264
upperneck 17.8635 -17.7541 21.3402
head 14.0886 -6.17327 6.85416
rclavicle -1.06549e-013 -7.95139e-014
rhumerus -25.1992 28.4669 -89.3507
rradius 42.561
rwrist -71.1533
rhand 0.202368 -38.0951
rfingers 7.12502
rthumb 25.7842 -66.3678
lclavicle -1.06549e-013 -7.95139e-014
lhumerus -10.1281 -77.5707 103.987
lradius 56.725
lwrist 1.26868
lhand -27.3531 -13.909
lfingers 7.12502
lthumb -0.761129 16.0694
rfemur -50.1998 -1.01662 -6.99826
rtibia 55.7165
rfoot -18.971 -8.90899
rtoes -16.0239
lfemur -47.8608 14.3038 -21.4279
ltibia 57.9749
lfoot -20.9954 9.1258
ltoes -17.6866
